<?xml version="1.0" encoding="utf-8"?>
<!-- Generator: Adobe Illustrator 23.0.4, SVG Export Plug-In . SVG Version: 6.00 Build 0)  -->
<svg version="1.1" id="Layer_1" xmlns="http://www.w3.org/2000/svg" xmlns:xlink="http://www.w3.org/1999/xlink" x="0px" y="0px"
	 viewBox="0 0 421 67" style="enable-background:new 0 0 421 67;" xml:space="preserve">
<style type="text/css">
	.st0{clip-path:url(#SVGID_2_);fill:#2CA3DC;}
	.st1{fill:none;}
</style>
<path d="M238.1,34.6c0-4.8-0.8-7.1-2-8.9c-1.8-2.7-4.9-4.5-8.7-4.5c-4.7,0-9.2,2.9-11.5,7.2v24h-4.3V17.8h4.1v4.7
	c2.5-3.2,6.9-5.4,11.6-5.4c5.7,0,10.5,2.9,12.9,7.3c2.4-3.5,6.6-7.3,13.5-7.3c5.7,0,10.4,2.9,12.9,7.3c1.3,2.3,2,5.1,2,9.7v18.2
	c0,0-1,0-2.2,0s-2.2-1-2.2-2.2V34.6c0-4.8-0.8-7.1-2-8.9c-1.8-2.7-4.9-4.5-8.7-4.5c-5.5,0-9.8,3.9-11.9,8c0.2,1.4,0.4,3,0.4,4.9
	v18.2c0,0-1,0-2.2,0s-2.2-1-2.2-2.2V34.6 M420.8,33.9c0-9.6-6.8-16.8-16-16.8c-9.7,0-16.4,8.1-16.4,17.9c0,10.7,7.6,17.9,17.2,17.9
	c6.5,0,11.4-3,14.5-6.9l-1.1-1c-1.1-0.9-2.6-0.9-3.7,0.1c-2.8,2.6-6,3.7-9.7,3.7c-7.9,0-12.7-6.2-12.9-13.5h28
	C420.8,34.7,420.8,34.2,420.8,33.9z M393,31.4c1.3-5.9,5.8-10.3,11.9-10.3c5.9,0,10.6,4.3,11.5,10.3C416.4,31.4,393,31.4,393,31.4z
	 M311.6,35c0-9.9-7.4-17.9-17.7-17.9c-10.2,0-17.7,8.1-17.7,17.9c0,9.9,7.5,17.9,17.7,17.9S311.6,44.9,311.6,35z M307.3,35
	c0,7.7-5.6,13.8-13.4,13.8s-13.4-6.2-13.4-13.8c0-7.7,5.6-13.9,13.4-13.9C301.6,21.1,307.3,27.3,307.3,35z M319.8,2.6v49.7h4.2v-5.2
	c2.6,3.5,7,5.8,12.3,5.8c3.2,0,6.9-0.8,10.2-3.2c4.5-3.2,7.3-8.5,7.3-14.7c0-5.7-2.5-10.8-6.4-14.1c-2.9-2.3-6.8-3.8-10.9-3.8
	c-4.9,0-9.3,2-12.4,5.3V0.8L319.8,2.6z M324.1,41.3V28.1c1.5-2.6,6-6.9,12.3-6.9c2.9,0,5.9,1,8.3,2.9c3,2.5,4.8,6.5,4.8,10.9
	c0,4.7-2.1,9-5.4,11.3c-2.2,1.5-4.8,2.6-7.8,2.6C331.3,48.8,326.8,46,324.1,41.3z M361.4,17.8h4.3v34.5h-4.3V17.8z M363.5,11.2
	c1.6,0,2.8-1.3,2.8-2.8c0-1.6-1.3-2.8-2.8-2.8s-2.8,1.2-2.8,2.8C360.7,9.9,362,11.2,363.5,11.2z M380.5,52.3h-4.3V2.6l4.3-1.8V52.3z
	"/>
<g>
	<defs>
		<rect id="SVGID_1_" y="0.8" width="420.8" height="66.1"/>
	</defs>
	<clipPath id="SVGID_2_">
		<use xlink:href="#SVGID_1_"  style="overflow:visible;"/>
	</clipPath>
	<path class="st0" d="M293.8,3.2c-5.3,0-10.3,2.1-14.1,5.8c-0.4,0.4-0.7,1-0.7,1.6s0.2,1.2,0.7,1.6c0.4,0.4,1,0.7,1.6,0.7
		s1.2-0.2,1.6-0.7c2.9-2.9,6.7-4.5,10.8-4.5c4.1,0,7.9,1.6,10.8,4.5c0.4,0.4,1,0.7,1.6,0.7s1.2-0.2,1.6-0.7c0.4-0.4,0.7-1,0.7-1.6
		s-0.2-1.2-0.7-1.6C304.1,5.2,299.1,3.2,293.8,3.2 M293.8,66.8c5.3,0,10.3-2.1,14.1-5.8c0.4-0.4,0.7-1,0.7-1.6s-0.2-1.2-0.7-1.6
		c-0.4-0.4-1-0.7-1.6-0.7s-1.2,0.2-1.6,0.7c-2.9,2.9-6.7,4.5-10.8,4.5c-4.1,0-7.9-1.6-10.8-4.5c-0.4-0.4-1-0.7-1.6-0.7
		s-1.2,0.2-1.6,0.7c-0.4,0.4-0.7,1-0.7,1.6s0.2,1.2,0.7,1.6C283.5,64.7,288.5,66.8,293.8,66.8z"/>
</g>
<rect y="0.8" class="st1" width="420.8" height="66.1"/>
<path d="M21.9,34.3l12.3-16.5h-5.1c-2.3,0-3.8,0.8-5,2.4L17.6,29l-6.3-8.7c-1.2-1.6-2.7-2.4-5-2.4H1.1l12.2,16.5L0,52.3h4.9
	c2.3,0,3.8-0.8,5-2.4l7.7-10.2l18,24.9c1.1,1.6,2.7,2.4,5,2.4h5.3L21.9,34.3 M120.3,52.3h7V17.8h-7V52.3z M65.1,52.3h7V17.8h-7V52.3
	z M170.7,64.4l25.2-46.6h-3.8c-2.3,0-4.1,0.7-5,2.4l-9.9,18.4l-8.6-18.4c-0.9-1.8-2.7-2.4-5-2.4H160l13.2,28.1L161.6,67h3.8
	C167.8,67,169.6,66.3,170.7,64.4z M80.4,17.8v34.5h7V28.6c2.2-3,5.3-4.9,9.1-4.9c5.1,0,8.7,3.2,8.7,9.7V49c0,2,1.4,3.3,3.2,3.3h3.7
	V32.2c0-8.9-5.7-15.1-13.9-15.1c-4.4,0-8,1.6-10.8,4.1v-3.4C87.4,17.8,80.4,17.8,80.4,17.8z M140.2,40c0,7.5,4.6,12.8,12.8,12.8
	c2,0,3.7-0.3,5.1-0.7l-1.4-6.1c-0.9,0.2-2,0.3-3.2,0.3c-3.4,0-6.4-1.8-6.4-6.6V24h9.7l-2.8-6.2h-6.9V4l-7,3v10.8h-7.4V24h7.4
	L140.2,40L140.2,40z M43.7,24v28.2h7V24h8.9v-6.2h-8.9v-2.6c0-5.9,3.5-7.8,7-7.8c0.9,0,1.7,0.1,2.4,0.3l1.4-6.1
	c-0.9-0.3-2.3-0.7-4.3-0.7c-8.6,0-13.4,6.4-13.4,14.2v2.7h-3.6L35.7,24H43.7z"/>
</svg>
